<?xml version="1.0" standalone="no"?>
<!DOCTYPE svg PUBLIC "-//W3C//DTD SVG 20010904//EN"
 "http://www.w3.org/TR/2001/REC-SVG-20010904/DTD/svg10.dtd">
<svg version="1.0" xmlns="http://www.w3.org/2000/svg"
 width="920.000000pt" height="512.000000pt" viewBox="0 0 920.000000 512.000000"
 preserveAspectRatio="xMidYMid meet">

<g transform="translate(0.000000,512.000000) scale(0.100000,-0.100000)"
fill="#000000" stroke="none">
<path d="M5110 3995 l0 -105 337 0 338 0 -680 -680 -680 -680 73 -72 72 -73
680 680 680 680 0 -338 0 -337 105 0 105 0 -2 513 -3 512 -512 3 -513 2 0
-105z"/>
<path d="M3490 3881 c-79 -24 -150 -83 -188 -155 l-27 -51 0 -1115 0 -1115 30
-54 c37 -66 92 -115 163 -141 53 -20 70 -20 1150 -18 l1097 3 53 29 c60 33
101 76 134 139 l23 42 3 608 3 607 -100 0 -100 0 -3 -578 c-3 -648 0 -621 -75
-641 -57 -16 -2066 -14 -2113 2 -24 8 -41 23 -52 47 -17 33 -18 105 -18 1068
0 884 2 1038 15 1068 27 65 19 64 650 64 l565 0 0 100 0 100 -592 -1 c-326 0
-604 -4 -618 -8z"/>
</g>
</svg>
